<svg width="1086" height="1086" viewBox="0 0 1086 1086" fill="none" xmlns="http://www.w3.org/2000/svg">
<path d="M768.295 415.187L892.483 577.031C909.966 599.815 905.668 632.458 882.884 649.941L517.941 929.971C405.773 1016.04 245.07 994.883 159 882.715L768.295 415.187Z" fill="url(#paint0_linear_213_93)"/>
<path d="M565.197 156.029C677.365 69.9598 838.069 91.1168 924.138 203.285L314.843 670.814L190.656 508.97C173.173 486.186 177.47 453.543 200.254 436.06L565.197 156.029Z" fill="url(#paint1_linear_213_93)"/>
<path d="M211 671.187C182.281 671.187 159 647.905 159 619.187L159 519.187C159 461.749 205.562 415.187 263 415.187L875 415.187C903.719 415.187 927 438.468 927 467.187V567.187C927 624.624 880.438 671.187 823 671.187L211 671.187Z" fill="url(#paint2_linear_213_93)"/>
<circle cx="766" cy="766" r="184" fill="url(#paint3_linear_213_93)" stroke="url(#paint4_linear_213_93)" stroke-width="16"/>
<path d="M787.333 734C784.311 734 781.78 732.976 779.739 730.928C777.698 728.88 776.674 726.348 776.667 723.333V680.667C776.667 677.644 777.691 675.113 779.739 673.072C781.787 671.031 784.318 670.007 787.333 670H851.333C854.356 670 856.891 671.024 858.939 673.072C860.987 675.12 862.007 677.652 862 680.667V723.333C862 726.356 860.976 728.891 858.928 730.939C856.88 732.987 854.348 734.007 851.333 734H787.333ZM680.667 776.667C677.644 776.667 675.113 775.643 673.072 773.595C671.031 771.547 670.007 769.015 670 766V680.667C670 677.644 671.024 675.113 673.072 673.072C675.12 671.031 677.652 670.007 680.667 670H744.667C747.689 670 750.224 671.024 752.272 673.072C754.32 675.12 755.34 677.652 755.333 680.667V766C755.333 769.022 754.309 771.557 752.261 773.605C750.213 775.653 747.682 776.674 744.667 776.667H680.667ZM787.333 862C784.311 862 781.78 860.976 779.739 858.928C777.698 856.88 776.674 854.348 776.667 851.333V766C776.667 762.978 777.691 760.446 779.739 758.405C781.787 756.364 784.318 755.34 787.333 755.333H851.333C854.356 755.333 856.891 756.357 858.939 758.405C860.987 760.453 862.007 762.985 862 766V851.333C862 854.356 860.976 856.891 858.928 858.939C856.88 860.987 854.348 862.007 851.333 862H787.333ZM680.667 862C677.644 862 675.113 860.976 673.072 858.928C671.031 856.88 670.007 854.348 670 851.333V808.667C670 805.644 671.024 803.113 673.072 801.072C675.12 799.031 677.652 798.007 680.667 798H744.667C747.689 798 750.224 799.024 752.272 801.072C754.32 803.12 755.34 805.652 755.333 808.667V851.333C755.333 854.356 754.309 856.891 752.261 858.939C750.213 860.987 747.682 862.007 744.667 862H680.667Z" fill="url(#paint5_linear_213_93)"/>
<defs>
<linearGradient id="paint0_linear_213_93" x1="846.217" y1="516.736" x2="236.922" y2="984.265" gradientUnits="userSpaceOnUse">
<stop stop-color="#33FFBB"/>
<stop offset="0.02" stop-color="#33FFBB"/>
<stop offset="1" stop-color="#138660"/>
</linearGradient>
<linearGradient id="paint1_linear_213_93" x1="846.217" y1="101.736" x2="236.922" y2="569.265" gradientUnits="userSpaceOnUse">
<stop stop-color="#33FFBB"/>
<stop offset="0.98" stop-color="#138660"/>
<stop offset="1" stop-color="#138660"/>
</linearGradient>
<linearGradient id="paint2_linear_213_93" x1="159" y1="543.187" x2="927" y2="543.187" gradientUnits="userSpaceOnUse">
<stop stop-color="#138660"/>
<stop offset="1" stop-color="#33FFBB"/>
</linearGradient>
<linearGradient id="paint3_linear_213_93" x1="766" y1="574" x2="766" y2="958" gradientUnits="userSpaceOnUse">
<stop stop-color="#33FFBB"/>
<stop offset="1" stop-color="#1F9970"/>
</linearGradient>
<linearGradient id="paint4_linear_213_93" x1="766" y1="574" x2="766" y2="958" gradientUnits="userSpaceOnUse">
<stop stop-color="#138660"/>
<stop offset="1" stop-color="#052017"/>
</linearGradient>
<linearGradient id="paint5_linear_213_93" x1="766" y1="670" x2="766" y2="862" gradientUnits="userSpaceOnUse">
<stop stop-color="#138660"/>
<stop offset="1" stop-color="#052017"/>
</linearGradient>
</defs>
</svg>
